<?xml version="1.0" standalone="no"?>
<svg xmlns="http://www.w3.org/2000/svg" viewBox="0 0 229.958 29" width="229.958" height="29"><g fill="#4dc942" color="#4dc942" transform="translate(0, 0) scale(0.5576924)"><svg width="52.0" height="52.0" x="0.0" y="0.0" viewBox="0 0 52 52"><path fill="currentColor" fill-rule="evenodd" d="M31.335 30.191v-4.42c2.267-.842 3.9-3.869 3.9-7.56 0-3.266-.426-6.345-1.206-8.685C32.843 5.95 31.2 5.2 30.035 5.2c-3.577 0-5.2 6.74-5.2 13 0 3.702 1.633 6.718 3.9 7.56v6.043A43.104 43.104 0 0 0 26 33.821a43.175 43.175 0 0 0-2.704-1.997 39.208 39.208 0 0 0-3.338-2.038v-4.077c1.788-.79 3.068-3.203 3.068-6.126 0-2.59-.344-5.044-.968-6.916-.988-2.964-2.392-3.577-3.4-3.577-1.01 0-2.413.624-3.401 3.577-.624 1.862-.967 4.316-.967 6.916 0 2.923 1.268 5.335 3.068 6.126v2.766A41.305 41.305 0 0 0 2.62 24.773c.291-5.793 2.693-11.201 6.822-15.33C13.873 5.033 19.75 2.6 26 2.6c6.25 0 12.126 2.434 16.546 6.854 4.13 4.128 6.532 9.536 6.823 15.33a41.456 41.456 0 0 0-18.034 5.407m-1.3-6.791c-1.227 0-2.6-2.226-2.6-5.2 0-2.985.385-5.782 1.071-7.862.697-2.101 1.415-2.538 1.53-2.538.114 0 .82.437 1.528 2.538.697 2.08 1.071 4.877 1.071 7.862 0 2.974-1.373 5.2-2.6 5.2m6.115 22.287a43.776 43.776 0 0 0-1.362-2.225 28.498 28.498 0 0 1 11.097-5.096 23.137 23.137 0 0 1-2.621 3.442 25.736 25.736 0 0 0-7.114 3.88M18.668 23.4c-.718 0-1.768-1.487-1.768-3.806 0-4.743 1.196-7.416 1.758-7.852.208.176.655.77 1.07 2.194.448 1.56.698 3.567.698 5.668 0 2.309-1.04 3.796-1.758 3.796m.77 12.116a36.326 36.326 0 0 0-16.495-5.502 24.536 24.536 0 0 1-.301-2.63 38.714 38.714 0 0 1 19.198 6.593A38.93 38.93 0 0 1 34.372 47.85c-.822.312-1.664.583-2.527.801a36.628 36.628 0 0 0-12.407-13.135m6.79 13.884a31.23 31.23 0 0 0-10.971-10.317 31.117 31.117 0 0 0-10.691-3.64 23.45 23.45 0 0 1-1.01-2.745 33.725 33.725 0 0 1 14.478 5.023A33.867 33.867 0 0 1 29.14 49.192c-.947.125-1.924.198-2.912.208m-7.52-1.154a26.187 26.187 0 0 0-7.55-5.44 28.536 28.536 0 0 0-2.402-.998 23.85 23.85 0 0 1-2.631-3.453 28.598 28.598 0 0 1 7.862 2.985 28.801 28.801 0 0 1 8.944 7.852c-1.446-.177-2.85-.5-4.222-.946m28.714-12.813A31.322 31.322 0 0 0 33.28 41.33a38.429 38.429 0 0 0-1.622-2.028 33.705 33.705 0 0 1 16.775-6.615c-.281.936-.614 1.851-1.009 2.746m1.633-5.419A36.478 36.478 0 0 0 29.9 37.367a52.264 52.264 0 0 0-1.882-1.83 38.83 38.83 0 0 1 21.34-8.154 24.235 24.235 0 0 1-.301 2.631m-4.67-22.401C39.478 2.704 32.947 0 26 0 19.053 0 12.522 2.704 7.613 7.613 2.704 12.522 0 19.053 0 26c0 6.947 2.704 13.478 7.613 18.387C12.522 49.296 19.053 52 26 52c6.947 0 13.478-2.704 18.387-7.613C49.296 39.478 52 32.947 52 26c0-6.947-2.704-13.478-7.613-18.387"></path></svg></g><line x1="41" y1="1" x2="41" y2="28" stroke="#353434" stroke-linecap="round"></line><path fill="#353434" fill-rule="nonzero" d="M5.78 18.53L5.78 18.53Q3.13 18.53 1.56 16.76Q0 15 0 12.19L0 12.19L0 11.67Q0 8.96 1.61 7.17Q3.22 5.37 5.43 5.37L5.43 5.37Q7.98 5.37 9.30 6.91Q10.62 8.46 10.62 11.04L10.62 11.04L10.62 12.48L2.39 12.48L2.36 12.54Q2.39 14.37 3.28 15.54Q4.17 16.72 5.78 16.72L5.78 16.72Q6.95 16.72 7.83 16.39Q8.72 16.05 9.36 15.47L9.36 15.47L10.27 16.97Q9.59 17.63 8.47 18.08Q7.35 18.53 5.78 18.53ZM5.43 7.18L5.43 7.18Q4.27 7.18 3.45 8.16Q2.63 9.14 2.44 10.62L2.44 10.62L2.46 10.68L8.31 10.68L8.31 10.37Q8.31 9.01 7.58 8.10Q6.86 7.18 5.43 7.18ZM14.48 1.82L12.57 1.49L12.57 0L16.79 0L16.79 16.48L18.70 16.80L18.70 18.28L12.57 18.28L12.57 16.80L14.48 16.48L14.48 1.82ZM24.80 5.60L24.80 7.09L23.27 7.32L25.89 14.54L26.10 15.46L26.17 15.46L26.39 14.54L28.92 7.32L27.39 7.09L27.39 5.60L32.29 5.60L32.29 7.09L31.24 7.27L26.99 18.28L25.24 18.28L20.94 7.27L19.90 7.09L19.90 5.60L24.80 5.60ZM33.84 18.28L33.84 16.80L35.75 16.48L35.75 7.42L33.84 7.09L33.84 5.60L38.06 5.60L38.06 16.48L39.97 16.80L39.97 18.28L33.84 18.28ZM38.06 0L38.06 2.36L35.75 2.36L35.75 0L38.06 0ZM51.32 6.79L51.43 9.59L49.70 9.59L49.32 8.06Q48.90 7.66 48.26 7.42Q47.63 7.18 46.82 7.18L46.82 7.18Q45.59 7.18 44.99 7.72Q44.39 8.26 44.39 9.02L44.39 9.02Q44.39 9.77 44.92 10.21Q45.45 10.64 47.06 10.98L47.06 10.98Q49.46 11.50 50.64 12.38Q51.81 13.27 51.81 14.75L51.81 14.75Q51.81 16.44 50.44 17.48Q49.08 18.53 46.88 18.53L46.88 18.53Q45.43 18.53 44.29 18.19Q43.14 17.86 42.23 17.23L42.23 17.23L42.22 14.33L43.96 14.33L44.39 16.03Q44.79 16.39 45.47 16.56Q46.16 16.72 46.88 16.72L46.88 16.72Q48.11 16.72 48.80 16.22Q49.50 15.73 49.50 14.92L49.50 14.92Q49.50 14.16 48.92 13.66Q48.34 13.17 46.72 12.81L46.72 12.81Q44.41 12.30 43.24 11.44Q42.07 10.57 42.07 9.09L42.07 9.09Q42.07 7.55 43.39 6.46Q44.71 5.37 46.82 5.37L46.82 5.37Q48.26 5.37 49.41 5.74Q50.55 6.12 51.32 6.79L51.32 6.79ZM65.63 16.72L65.63 16.72Q66.77 16.72 67.65 16.01Q68.52 15.30 68.52 14.27L68.52 14.27L70.59 14.27L70.62 14.34Q70.68 15.98 69.16 17.26Q67.64 18.53 65.63 18.53L65.63 18.53Q62.86 18.53 61.40 16.72Q59.94 14.92 59.94 12.19L59.94 12.19L59.94 11.70Q59.94 8.99 61.41 7.18Q62.87 5.37 65.63 5.37L65.63 5.37Q67.15 5.37 68.36 5.87Q69.57 6.38 70.37 7.25L70.37 7.25L70.48 10.07L68.64 10.07L68.13 8.07Q67.72 7.68 67.08 7.43Q66.43 7.18 65.63 7.18L65.63 7.18Q63.81 7.18 63.03 8.49Q62.25 9.80 62.25 11.70L62.25 11.70L62.25 12.19Q62.25 14.13 63.02 15.43Q63.80 16.72 65.63 16.72ZM72.88 12.08L72.88 11.82Q72.88 9.01 74.40 7.19Q75.93 5.37 78.54 5.37L78.54 5.37Q81.16 5.37 82.69 7.18Q84.22 9 84.22 11.82L84.22 11.82L84.22 12.08Q84.22 14.92 82.70 16.72Q81.18 18.53 78.56 18.53L78.56 18.53Q75.93 18.53 74.40 16.72Q72.88 14.91 72.88 12.08L72.88 12.08ZM75.19 11.82L75.19 12.08Q75.19 14.10 76.04 15.41Q76.89 16.72 78.56 16.72L78.56 16.72Q80.20 16.72 81.06 15.41Q81.91 14.10 81.91 12.08L81.91 12.08L81.91 11.82Q81.91 9.83 81.06 8.51Q80.20 7.18 78.54 7.18L78.54 7.18Q76.88 7.18 76.03 8.51Q75.19 9.83 75.19 11.82L75.19 11.82ZM85.99 18.28L85.99 16.80L87.90 16.48L87.90 7.42L85.99 7.09L85.99 5.60L89.96 5.60L90.13 7.49Q90.76 6.48 91.72 5.92Q92.67 5.37 93.89 5.37L93.89 5.37Q95.94 5.37 97.07 6.57Q98.19 7.77 98.19 10.28L98.19 10.28L98.19 16.48L100.10 16.80L100.10 18.28L93.97 18.28L93.97 16.80L95.88 16.48L95.88 10.32Q95.88 8.65 95.22 7.95Q94.56 7.24 93.20 7.24L93.20 7.24Q92.20 7.24 91.44 7.72Q90.67 8.20 90.21 9.04L90.21 9.04L90.21 16.48L92.12 16.80L92.12 18.28L85.99 18.28ZM111.36 6.79L111.48 9.59L109.75 9.59L109.37 8.06Q108.95 7.66 108.31 7.42Q107.67 7.18 106.86 7.18L106.86 7.18Q105.63 7.18 105.04 7.72Q104.44 8.26 104.44 9.02L104.44 9.02Q104.44 9.77 104.96 10.21Q105.49 10.64 107.11 10.98L107.11 10.98Q109.51 11.50 110.68 12.38Q111.86 13.27 111.86 14.75L111.86 14.75Q111.86 16.44 110.49 17.48Q109.13 18.53 106.92 18.53L106.92 18.53Q105.48 18.53 104.33 18.19Q103.18 17.86 102.28 17.23L102.28 17.23L102.27 14.33L104.00 14.33L104.44 16.03Q104.84 16.39 105.52 16.56Q106.21 16.72 106.92 16.72L106.92 16.72Q108.15 16.72 108.85 16.22Q109.55 15.73 109.55 14.92L109.55 14.92Q109.55 14.16 108.97 13.66Q108.39 13.17 106.77 12.81L106.77 12.81Q104.46 12.30 103.29 11.44Q102.12 10.57 102.12 9.09L102.12 9.09Q102.12 7.55 103.44 6.46Q104.75 5.37 106.86 5.37L106.86 5.37Q108.30 5.37 109.45 5.74Q110.60 6.12 111.36 6.79L111.36 6.79ZM123.23 18.28L123.08 16.41Q122.48 17.43 121.54 17.98Q120.60 18.53 119.37 18.53L119.37 18.53Q117.30 18.53 116.14 17.20Q114.98 15.88 114.98 13.08L114.98 13.08L114.98 7.42L113.53 7.09L113.53 5.60L114.98 5.60L117.29 5.60L117.29 13.10Q117.29 15.13 117.89 15.89Q118.49 16.65 119.75 16.65L119.75 16.65Q120.98 16.65 121.79 16.15Q122.59 15.66 123 14.74L123 14.74L123 7.42L121.30 7.09L121.30 5.60L123 5.60L125.31 5.60L125.31 16.48L126.76 16.80L126.76 18.28L123.23 18.28ZM130.18 1.82L128.27 1.49L128.27 0L132.49 0L132.49 16.48L134.40 16.80L134.40 18.28L128.27 18.28L128.27 16.80L130.18 16.48L130.18 1.82ZM137.87 2.54L140.18 2.54L140.18 5.60L142.58 5.60L142.58 7.31L140.18 7.31L140.18 15.01Q140.18 15.90 140.55 16.27Q140.92 16.63 141.53 16.63L141.53 16.63Q141.83 16.63 142.21 16.58Q142.59 16.52 142.85 16.46L142.85 16.46L143.17 18.05Q142.84 18.26 142.21 18.39Q141.57 18.53 140.94 18.53L140.94 18.53Q139.54 18.53 138.70 17.68Q137.87 16.83 137.87 15.01L137.87 15.01L137.87 7.31L135.87 7.31L135.87 5.60L137.87 5.60L137.87 2.54ZM144.94 18.28L144.94 16.80L146.85 16.48L146.85 7.42L144.94 7.09L144.94 5.60L149.16 5.60L149.16 16.48L151.07 16.80L151.07 18.28L144.94 18.28ZM149.16 0L149.16 2.36L146.85 2.36L146.85 0L149.16 0ZM152.48 18.28L152.48 16.80L154.39 16.48L154.39 7.42L152.48 7.09L152.48 5.60L156.46 5.60L156.62 7.49Q157.25 6.48 158.21 5.92Q159.16 5.37 160.38 5.37L160.38 5.37Q162.43 5.37 163.56 6.57Q164.68 7.77 164.68 10.28L164.68 10.28L164.68 16.48L166.59 16.80L166.59 18.28L160.46 18.28L160.46 16.80L162.38 16.48L162.38 10.32Q162.38 8.65 161.71 7.95Q161.05 7.24 159.69 7.24L159.69 7.24Q158.70 7.24 157.93 7.72Q157.16 8.20 156.70 9.04L156.70 9.04L156.70 16.48L158.61 16.80L158.61 18.28L152.48 18.28ZM168.16 12.42L168.16 12.18Q168.16 9.12 169.50 7.24Q170.84 5.37 173.19 5.37L173.19 5.37Q174.39 5.37 175.29 5.84Q176.19 6.30 176.80 7.20L176.80 7.20L177.01 5.60L178.96 5.60L178.96 18.12Q178.96 20.58 177.59 21.99Q176.21 23.40 173.68 23.40L173.68 23.40Q172.77 23.40 171.70 23.15Q170.64 22.90 169.83 22.46L169.83 22.46L170.43 20.67Q171.07 21.01 171.95 21.23Q172.83 21.46 173.66 21.46L173.66 21.46Q175.21 21.46 175.93 20.59Q176.65 19.72 176.65 18.12L176.65 18.12L176.65 16.91Q176.03 17.71 175.16 18.12Q174.29 18.53 173.17 18.53L173.17 18.53Q170.84 18.53 169.50 16.84Q168.16 15.15 168.16 12.42L168.16 12.42ZM170.47 12.18L170.47 12.42Q170.47 14.33 171.28 15.49Q172.09 16.65 173.74 16.65L173.74 16.65Q174.79 16.65 175.49 16.18Q176.19 15.70 176.65 14.84L176.65 14.84L176.65 9Q176.20 8.19 175.49 7.72Q174.77 7.24 173.77 7.24L173.77 7.24Q172.11 7.24 171.29 8.63Q170.47 10.01 170.47 12.18L170.47 12.18Z" transform="translate(51, 5.36)"></path></svg>