<?xml version="1.0" standalone="no"?>
<svg xmlns="http://www.w3.org/2000/svg" viewBox="0 0 130.839 29" width="130.839" height="29"><g fill="#4dc942" color="#4dc942" transform="translate(0, 0) scale(0.5471699)"><svg width="50.0" height="53.0" x="0.0" y="0.0" viewBox="0 0 50 53"><path fill="currentColor" fill-rule="evenodd" d="M5.796 11.69c-1.373.039-4.05-.808-2.824-2.667.787-1.178 2.367-.896 3.363-.205.813.598 1.443 1.617 1.998 2.473a.3.3 0 0 0 .148.13l.141.21c-.935.011-1.9.059-2.826.06m30.925-.283c.856-1.482 2.908-3.649 4.904-2.964 2.041.694 2.268 2.216 1.629 3.895 1.48-1.342 3.29-2.274 5.36-2.76.244-.069.47-.025.604.176 1.091 1.55-.04 3.477-1.444 4.423-.72.485-1.53.907-2.384 1.227 1.238.548 1.96 1.668 1.765 3.126-.228 1.539-2.223 2.28-3.535 2.337-1.824.114-3.82-.399-5.074-1.824a.414.414 0 0 1-.084-.196 33.003 33.003 0 0 0-2.178 1.562 8.213 8.213 0 0 1 1.008-.165c1.425-.113 4.162-.285 4.162 1.825 0 1.939-2.452 3.307-4.105 3.592-2.095.39-4.063.232-5.943-.602a37.852 37.852 0 0 0-3.077 4.104c1.289-1.13 2.844-1.997 4.401-2.362 1.597-.341 4.106-.341 4.79 1.597.684 1.996-.741 3.82-2.68 4.447-1.425.457-2.965.798-4.447.513-1.513-.341-2.693-.72-4.145-.61a48.28 48.28 0 0 0-2.144 4.774c1.253-1.322 2.925-2.258 4.727-2.516 1.71-.227 3.99-.057 4.732 1.825 2.053 5.302-6.899 4.39-9.407 3.706-.172-.057-.172-.4 0-.342 1.653.228 3.42.285 5.074.114 1.14-.114 4.675-1.14 3.25-3.022-2.338-3.193-7.07.172-8.838 2.167a.308.308 0 0 1-.286.113c-1.39 4.077-2.325 8.378-2.884 12.72 0 .115-.171.115-.171 0 .252-6.234 1.567-12.726 4.09-18.584-2.106-3.21-5.05-11.192.813-12.432 3.286-.687 2.628 4.024 1.614 7.656a36.965 36.965 0 0 1 2.4-3.564c-2.363-4.412-.706-9.716 3.512-12.36.171-.113.514-.056.685.114 2.022 2.511 1.51 5.194.127 7.58a29.494 29.494 0 0 1 3.4-2.584c1.147-.97 2.332-1.856 3.257-3 .57-.684 1.14-1.482 1.54-2.28.342-.684 1.425-3.478-.741-3.307-3.82.342-5.018 5.36-4.334 8.381 0 .114-.17.228-.17.114-1.027-2.11-.97-4.561.227-6.614zm-19.556 27.31c-.114-.398.513-.57.627-.17 1.426 4.276 2.053 9.236 1.255 13.684-.57-4.562-1.027-9.01-1.882-13.513zm-9.864-5.245c.628-2.451 3.478-2.166 5.075-.969 2.11 1.54 3.592 3.82 3.706 6.442 0 .343-.57.4-.627.058-.4-1.939-1.14-3.82-2.794-5.074-.855-.628-3.136-2.338-3.991-.4-.513 1.14-.171 2.395.513 3.364 1.938 2.737 5.36 3.307 8.267 4.39.171.058.171.286-.057.343-4.333.399-11.574-2.566-10.092-8.154zm10.434-4.162c1.768-.912 4.048.627 4.619 2.338.912 2.68.228 5.93-.457 8.61-.026-.22-.043-.443-.057-.664-.123.22-.453.343-.684.15-1.767-1.54-4.618-3.25-5.131-5.758-.4-1.825-.114-3.764 1.71-4.676zm1.825 1.255c-1.426-.343-2.395.513-2.395 1.824 0 3.124 3.168 4.438 4.657 6.816-.06-1.604.102-3.23-.039-4.82-.114-1.426-.513-3.421-2.223-3.82zm7.184-5.53c0-.628-.114-5.076-2.737-2.11-2.697 3.027-.826 7.167.538 10.425a43.06 43.06 0 0 1 1.107-2.32c.318-.978.563-1.963.75-2.974.17-1.026.342-1.995.342-3.022zm7.64 2.793a7.788 7.788 0 0 0-3.193 1.026c-1.492.77-2.659 1.826-3.81 2.959 1.812-.124 4.285.718 5.577.405a6.214 6.214 0 0 0 2.053-.684c1.71-.798 1.97-3.537-.627-3.706zM.913.369c1.026-.57 2.566-.513 3.42.4C5.589 2.023 5.532 3.79 5.418 5.444c-.057.114-.17.114-.17.057-.172-1.254-.343-3.022-1.312-3.934C3.308.94 1.255.37 1.027 1.68.742 3.163 2.623 4.076 3.65 4.703c.822.457 1.683.905 2.549 1.333a4.226 4.226 0 0 1 .133-2.21C6.73 2.57 8.385 1.658 9.696 2.114c4.618 1.653 2.85 8.153 1.71 11.63 0 .115-.17.058-.17 0 .398-2.337.911-5.416.227-7.754-.285-1.025-.855-2.45-2.11-2.622-1.653.342-2.28 1.197-1.938 2.566.4 1.14 1.026 2.052 1.71 3.022.298.395-.178.832-.57.68 1.69 2.396 3.11 5.033 4.334 7.587.231.485.459 1 .678 1.538-.514-1.867-.32-3.982.52-5.757.683-1.426 1.823-3.364 3.648-2.737 1.483.57 1.311 2.965 1.026 4.105-.627 2.736-2.052 4.904-3.706 7.07-.057.057-.113 0-.057-.057 1.255-2.451 3.935-6.443 2.851-9.351-.798-2.166-2.395.4-2.622.913-.4.684-.742 1.482-.855 2.28-.23 1.426-.115 2.794.17 4.22.099.393-.355.53-.59.304 1.026 2.764 1.797 5.985 1.791 8.879 1.655-1.466 4.158-3 4.102-5.535 0-.455-.115-2.794-1.54-1.824-.741.456-1.311 1.14-1.54 1.996-.284 1.025-.341 2.052-.398 3.079-.057.227-.343.227-.343 0-.057-1.654-.114-3.764 1.14-5.075.685-.742 2.11-1.825 2.91-.627 2.28 3.421-1.028 7.07-3.878 8.723-.162.116-.34.078-.47-.027-.021.42-.054.834-.113 1.234l-.081-1.565c0 .057-.037-.31-.06-.488-.024-.195-.059-.385-.086-.578-.107.054-.246.025-.33-.115-1.084-1.653-2.338-2.965-3.764-4.276-1.026-.912-3.364-1.996-3.706.17-.228 1.369.456 2.624 1.426 3.479 1.368 1.254 2.736 1.596 4.333 2.394.684.342 1.204.585 1.598 1.144.059.077.006.115-.053.082-.753-.647-3.598-.827-4.624-1.34-1.14-.57-1.996-1.31-2.794-2.338-1.026-1.31-1.596-3.478-.399-4.903 2.768-3.238 6.778 1.608 8.134 4.548-.583-3.244-1.638-6.248-3.03-9.098.075.295.143.594.199.9.056.229-.343.458-.457.172-.513-1.083-1.026-2.452-1.881-3.307-.513-.513-1.255-1.083-2.053-1.026-.798.057-2.223.799-1.824 1.881.456 1.312 2.052 2.167 3.193 2.794a62.838 62.838 0 0 0 2.737 1.482c.062.033.014.07-.058.058-2.11-.343-9.18-3.022-6.328-6.215a3.132 3.132 0 0 1 4.048-.513c.253.175.476.366.684.564a54.224 54.224 0 0 0-1.509-2.396c-1.911.33-4.185.983-6.029-.128-1.108-.68-1.733-2.158-.94-3.28.765-1.082 2.216-1.75 3.5-1.36-.228-.291-.46-.581-.693-.871-1.54-.704-3.087-1.55-4.138-2.77C-.17 2.765-.342 1.055.913.37zm32.559 14.917c-.628-1.654-1.198-.742-1.996.113a9.937 9.937 0 0 0-2.143 9.813c.4-.519.812-1.03 1.241-1.523 1.07-1.459 2.338-3.08 2.84-4.811.343-1.14.514-2.452.058-3.592zm6.67 7.07c.229-1.654-3.99-.457-4.504-.286-1.166.432-2.104.996-3.06 1.69-.31.324-.611.654-.906.99 1.323.398 2.764.538 4.137.228 1.312-.285 4.105-1.027 4.333-2.623zm3.97-6.493a34.088 34.088 0 0 0-4.98 2.55c1.711 1.29 4.288 2.436 6.313 1.03 1.847-1.304.433-3.431-1.333-3.58zm4.519-4.887c-.116-.894-3.618.98-4.075 1.238-.683.404-1.307.844-1.892 1.34-.283.484-.617.967-.982 1.436 1.44-.177 2.817-.327 4.145-.959 1.027-.497 3.046-1.613 2.804-3.055z"></path></svg></g><line x1="39.359" y1="1" x2="39.359" y2="28" stroke="#4dc942" stroke-linecap="round"></line><path fill="#4dc942" fill-rule="nonzero" d="M15.72 4.34L15.72 4.34Q15.72 5.83 14.90 7.00Q14.09 8.16 12.67 8.93L12.67 8.93Q13.58 9.55 14.12 10.45Q14.66 11.35 14.66 12.43L14.66 12.43Q14.66 13.73 13.88 14.99Q13.10 16.25 11.81 17.22Q10.51 18.19 8.86 18.79Q7.20 19.39 5.47 19.39L5.47 19.39Q3.60 19.39 2.20 18.68Q0.79 17.98 0 16.68L0 16.68Q0.24 15.96 0.64 14.89Q1.03 13.82 1.51 12.64Q1.99 11.45 2.48 10.27Q2.98 9.10 3.41 8.16L3.41 8.16Q4.32 6.12 5.04 4.78Q5.76 3.43 6.36 2.64L6.36 2.64Q5.04 3.05 3.96 3.56Q2.88 4.08 2.38 4.56L2.38 4.56Q2.16 4.42 1.93 4.13Q1.70 3.84 1.50 3.49Q1.30 3.14 1.16 2.78Q1.03 2.42 1.01 2.14L1.01 2.14Q1.63 1.70 2.63 1.31Q3.62 0.91 4.80 0.62Q5.98 0.34 7.21 0.17Q8.45 0 9.58 0L9.58 0Q12.46 0 14.09 1.15Q15.72 2.30 15.72 4.34ZM6.58 10.08L6.58 10.08Q6.12 9.86 5.74 9.43L5.74 9.43Q5.18 10.66 4.69 11.83Q4.20 13.01 3.82 14.02Q3.43 15.02 3.19 15.77Q2.95 16.51 2.93 16.85L2.93 16.85Q3.26 17.04 3.73 17.14Q4.20 17.23 4.90 17.23L4.90 17.23Q6.53 17.23 8.02 16.78Q9.50 16.32 10.63 15.54Q11.76 14.76 12.43 13.75Q13.10 12.74 13.10 11.64L13.10 11.64Q13.10 10.06 11.74 9.36L11.74 9.36Q9.86 10.13 7.51 10.13L7.51 10.13Q7.18 10.13 7.00 10.13Q6.82 10.13 6.58 10.08ZM11.23 1.75L11.23 1.75Q10.73 1.75 10.16 1.81Q9.60 1.87 8.98 1.99L8.98 1.99Q9.07 2.09 9.13 2.20Q9.19 2.30 9.24 2.42L9.24 2.42Q9.02 2.71 8.71 3.26Q8.40 3.82 8.02 4.55Q7.63 5.28 7.21 6.17Q6.79 7.06 6.36 7.99L6.36 7.99Q6.77 7.90 7.36 7.84Q7.94 7.78 8.52 7.78L8.52 7.78Q8.83 7.78 9.13 7.80Q9.43 7.82 9.72 7.87L9.72 7.87Q10.87 7.68 11.80 7.31Q12.72 6.94 13.39 6.44Q14.06 5.95 14.42 5.35Q14.78 4.75 14.78 4.08L14.78 4.08Q14.78 2.93 13.87 2.34Q12.96 1.75 11.23 1.75ZM16.18 15.96L16.18 15.96Q16.18 15.74 16.21 15.42Q16.25 15.10 16.34 14.56Q16.44 14.02 16.60 13.25Q16.75 12.48 16.99 11.40L16.99 11.40Q17.04 11.16 17.21 10.63Q17.38 10.10 17.65 9.52Q17.93 8.93 18.32 8.38Q18.72 7.82 19.27 7.56L19.27 7.56Q19.68 7.66 20.35 8.05Q21.02 8.45 21.50 9.14L21.50 9.14Q20.95 9.77 20.58 10.39Q20.21 11.02 19.91 11.69Q19.61 12.36 19.36 13.08Q19.10 13.80 18.79 14.59L18.79 14.59Q18.53 15.26 18.31 15.97Q18.10 16.68 18.07 17.21L18.07 17.21Q18.07 17.64 18.06 17.82Q18.05 18 17.93 18L17.93 18Q17.83 18 17.54 17.88Q17.26 17.76 16.96 17.51Q16.66 17.26 16.42 16.87Q16.18 16.49 16.18 15.96ZM20.76 5.54L20.76 5.54Q20.76 5.40 20.83 5.11L20.83 5.11Q20.71 4.99 20.63 4.75Q20.54 4.51 20.54 4.32L20.54 4.32Q20.54 4.10 20.60 3.73Q20.66 3.36 20.76 2.93Q20.86 2.50 21 2.03Q21.14 1.56 21.29 1.18L21.29 1.18Q21.58 1.18 22.00 1.33Q22.42 1.49 22.85 1.74Q23.28 1.99 23.64 2.29Q24 2.59 24.19 2.86L24.19 2.86Q23.93 3.12 23.50 3.59Q23.06 4.06 22.66 4.57Q22.25 5.09 21.91 5.54Q21.58 6.00 21.48 6.19L21.48 6.19Q21.19 6.14 20.98 5.94Q20.76 5.74 20.76 5.54ZM24.65 18.41L24.65 18.41Q23.28 18.26 22.46 17.21Q21.65 16.15 21.65 14.52L21.65 14.52Q21.65 13.56 21.94 12.53Q22.22 11.50 22.75 10.52Q23.28 9.55 24 8.69Q24.72 7.82 25.56 7.20L25.56 7.20Q26.88 6.22 28.03 6.22L28.03 6.22Q28.80 6.62 29.54 7.92L29.54 7.92Q29.66 7.92 29.76 7.91Q29.86 7.90 29.98 7.90L29.98 7.90Q31.25 7.90 31.25 10.15L31.25 10.15Q31.25 11.66 30.76 13.02Q30.26 14.38 29.39 15.48Q28.51 16.58 27.30 17.34Q26.09 18.10 24.65 18.41ZM25.87 10.85L25.87 10.85Q25.46 11.40 25.10 12.05Q24.74 12.70 24.48 13.36Q24.22 14.02 24.07 14.63Q23.93 15.24 23.93 15.72L23.93 15.72Q23.93 16.30 24.12 16.82Q24.31 17.35 24.55 17.42L24.55 17.42Q25.63 17.18 26.53 16.52Q27.43 15.86 28.09 14.88Q28.75 13.90 29.12 12.65Q29.50 11.40 29.50 9.98L29.50 9.98Q29.50 9.36 29.42 9.00Q29.35 8.64 29.18 8.38L29.18 8.38Q28.13 8.69 27.30 9.38Q26.47 10.08 25.87 10.85ZM33.55 9.07L33.55 9.07Q33.55 8.64 33.61 8.26Q33.67 7.87 33.86 7.60Q34.06 7.32 34.39 7.16Q34.73 7.01 35.28 7.01L35.28 7.01Q35.62 7.01 36.04 7.08Q36.46 7.15 36.65 7.34L36.65 7.34Q36.55 7.75 36.49 8.06Q36.43 8.38 36.40 8.75Q36.36 9.12 36.34 9.64Q36.31 10.15 36.29 10.97L36.29 10.97Q36.24 12.60 36.13 13.88Q36.02 15.17 35.64 16.44L35.64 16.44Q35.64 16.54 35.71 16.54L35.71 16.54Q36.07 16.27 36.53 15.77Q36.98 15.26 37.49 14.63Q37.99 13.99 38.50 13.27Q39 12.55 39.43 11.86L39.43 11.86Q40.01 10.85 40.70 9.34Q41.40 7.82 41.86 6.10L41.86 6.10Q42 6.10 42.23 6.16Q42.46 6.22 42.68 6.30Q42.91 6.38 43.09 6.48Q43.27 6.58 43.34 6.65L43.34 6.65Q43.30 7.68 42.85 8.76Q42.41 9.84 41.78 10.85Q41.16 11.86 40.46 12.74Q39.77 13.63 39.19 14.28L39.19 14.28Q38.04 15.62 36.88 16.68Q35.71 17.74 34.10 18.72L34.10 18.72Q33.48 18.48 33.12 18.08Q32.76 17.69 32.76 17.26L32.76 17.26Q32.76 16.97 32.89 16.60Q33.02 16.22 33.19 15.64Q33.36 15.05 33.49 14.16Q33.62 13.27 33.62 11.90L33.62 11.90Q33.62 11.11 33.59 10.31Q33.55 9.50 33.55 9.07ZM43.01 15.96L43.01 15.96Q43.01 15.74 43.04 15.42Q43.08 15.10 43.18 14.56Q43.27 14.02 43.43 13.25Q43.58 12.48 43.82 11.40L43.82 11.40Q43.87 11.16 44.04 10.63Q44.21 10.10 44.48 9.52Q44.76 8.93 45.16 8.38Q45.55 7.82 46.10 7.56L46.10 7.56Q46.51 7.66 47.18 8.05Q47.86 8.45 48.34 9.14L48.34 9.14Q47.78 9.77 47.41 10.39Q47.04 11.02 46.74 11.69Q46.44 12.36 46.19 13.08Q45.94 13.80 45.62 14.59L45.62 14.59Q45.36 15.26 45.14 15.97Q44.93 16.68 44.90 17.21L44.90 17.21Q44.90 17.64 44.89 17.82Q44.88 18 44.76 18L44.76 18Q44.66 18 44.38 17.88Q44.09 17.76 43.79 17.51Q43.49 17.26 43.25 16.87Q43.01 16.49 43.01 15.96ZM47.59 5.54L47.59 5.54Q47.59 5.40 47.66 5.11L47.66 5.11Q47.54 4.99 47.46 4.75Q47.38 4.51 47.38 4.32L47.38 4.32Q47.38 4.10 47.44 3.73Q47.50 3.36 47.59 2.93Q47.69 2.50 47.83 2.03Q47.98 1.56 48.12 1.18L48.12 1.18Q48.41 1.18 48.83 1.33Q49.25 1.49 49.68 1.74Q50.11 1.99 50.47 2.29Q50.83 2.59 51.02 2.86L51.02 2.86Q50.76 3.12 50.33 3.59Q49.90 4.06 49.49 4.57Q49.08 5.09 48.74 5.54Q48.41 6.00 48.31 6.19L48.31 6.19Q48.02 6.14 47.81 5.94Q47.59 5.74 47.59 5.54ZM49.97 9.07L49.97 9.07Q49.97 8.64 50.03 8.26Q50.09 7.87 50.28 7.60Q50.47 7.32 50.81 7.16Q51.14 7.01 51.70 7.01L51.70 7.01Q52.03 7.01 52.45 7.08Q52.87 7.15 53.06 7.34L53.06 7.34Q52.97 7.75 52.91 8.06Q52.85 8.38 52.81 8.75Q52.78 9.12 52.75 9.64Q52.73 10.15 52.70 10.97L52.70 10.97Q52.66 12.60 52.55 13.88Q52.44 15.17 52.06 16.44L52.06 16.44Q52.06 16.54 52.13 16.54L52.13 16.54Q52.49 16.27 52.94 15.77Q53.40 15.26 53.90 14.63Q54.41 13.99 54.91 13.27Q55.42 12.55 55.85 11.86L55.85 11.86Q56.42 10.85 57.12 9.34Q57.82 7.82 58.27 6.10L58.27 6.10Q58.42 6.10 58.64 6.16Q58.87 6.22 59.10 6.30Q59.33 6.38 59.51 6.48Q59.69 6.58 59.76 6.65L59.76 6.65Q59.71 7.68 59.27 8.76Q58.82 9.84 58.20 10.85Q57.58 11.86 56.88 12.74Q56.18 13.63 55.61 14.28L55.61 14.28Q54.46 15.62 53.29 16.68Q52.13 17.74 50.52 18.72L50.52 18.72Q49.90 18.48 49.54 18.08Q49.18 17.69 49.18 17.26L49.18 17.26Q49.18 16.97 49.31 16.60Q49.44 16.22 49.61 15.64Q49.78 15.05 49.91 14.16Q50.04 13.27 50.04 11.90L50.04 11.90Q50.04 11.11 50.00 10.31Q49.97 9.50 49.97 9.07ZM67.99 7.63L67.99 7.63Q67.90 9.12 67.46 10.19Q67.03 11.26 66.23 12.06Q65.42 12.86 64.27 13.51Q63.12 14.16 61.58 14.76L61.58 14.76Q61.58 14.90 61.57 15.06Q61.56 15.22 61.56 15.38L61.56 15.38Q61.56 15.70 61.61 16.03Q61.66 16.37 61.78 16.66Q61.90 16.94 62.11 17.12Q62.33 17.30 62.66 17.30L62.66 17.30Q63.31 17.30 63.94 17.02Q64.56 16.73 65.12 16.31Q65.69 15.89 66.18 15.40Q66.67 14.90 67.06 14.50L67.06 14.50Q67.30 14.71 67.46 14.90L67.46 14.90Q66.38 16.34 65.10 17.29Q63.82 18.24 62.66 18.50L62.66 18.50Q61.01 18.31 60.08 17.29Q59.16 16.27 59.16 14.83L59.16 14.83Q59.16 13.85 59.44 12.83Q59.71 11.81 60.20 10.86Q60.70 9.91 61.36 9.07Q62.02 8.23 62.77 7.61Q63.53 6.98 64.33 6.62Q65.14 6.26 65.93 6.26L65.93 6.26Q67.03 6.41 67.99 7.63ZM66.34 8.42L66.34 8.42Q65.69 8.52 64.99 8.95Q64.30 9.38 63.68 10.10Q63.07 10.82 62.57 11.78Q62.06 12.74 61.78 13.85L61.78 13.85Q63.70 12.89 64.97 11.48Q66.24 10.08 66.34 8.42ZM72.98 5.93L72.98 5.93Q73.61 6.12 74.16 6.78Q74.71 7.44 74.98 8.23L74.98 8.23Q74.71 8.88 74.16 9.79Q73.61 10.70 73.06 11.65Q72.50 12.60 72.06 13.45Q71.62 14.30 71.54 14.86L71.54 14.86Q71.93 14.45 72.40 13.91Q72.86 13.37 73.31 12.83Q73.75 12.29 74.14 11.84Q74.52 11.40 74.74 11.18L74.74 11.18Q75.19 10.70 75.82 10.07Q76.44 9.43 77.12 8.87Q77.81 8.30 78.50 7.91Q79.20 7.51 79.78 7.51L79.78 7.51Q80.40 7.51 80.82 7.93Q81.24 8.35 81.48 8.81L81.48 8.81Q81.48 8.86 81.30 8.94Q81.12 9.02 80.78 9.41L80.78 9.41Q80.45 9.84 80.03 10.60Q79.61 11.35 79.21 12.23Q78.82 13.10 78.55 14.02Q78.29 14.93 78.29 15.67L78.29 15.67Q78.29 16.27 78.44 16.44Q78.60 16.61 78.89 16.61L78.89 16.61Q79.15 16.61 79.44 16.49Q79.73 16.37 79.90 16.37L79.90 16.37Q79.99 16.42 80.05 16.57Q80.11 16.73 80.11 16.85L80.11 16.85Q79.92 17.02 79.66 17.18Q79.39 17.35 79.10 17.50Q78.82 17.64 78.54 17.74Q78.26 17.83 78.05 17.83L78.05 17.83Q77.35 17.83 76.91 17.63Q76.46 17.42 76.21 17.09Q75.96 16.75 75.86 16.28Q75.77 15.82 75.77 15.29L75.77 15.29Q75.77 15.00 75.82 14.64Q75.86 14.28 76.01 13.79Q76.15 13.30 76.42 12.61Q76.68 11.93 77.09 10.97L77.09 10.97Q77.04 10.97 76.44 11.30Q75.84 11.64 75.14 12.34L75.14 12.34Q74.02 13.42 73.12 14.47Q72.22 15.53 71.28 16.82L71.28 16.82Q70.75 17.57 70.36 18.08Q69.96 18.60 69.67 18.77L69.67 18.77Q69.17 18.48 68.93 17.96Q68.69 17.45 68.57 16.90L68.57 16.90Q68.57 16.44 68.70 15.74Q68.83 15.05 69.06 14.20Q69.29 13.34 69.62 12.41Q69.96 11.47 70.37 10.54L70.37 10.54Q71.28 8.42 72.04 7.22Q72.79 6.02 72.98 5.93Z" transform="translate(49.359, 4.804)"></path></svg>